# xmcd CD Database Entry
#
# Track frame offsets:
# 183
# 66633
# 112158
# 154233
# 220233
# 289120
#
# Disc length: 4706 seconds
#
# Revision: 2
# Processed by: cddbd v1.4PL0 Copyright (c) Steve Scherf et al.
# Submitted via: tcd 2.0b
#
DISCID=62126006
DTITLE=Frederic Chopin - Complete Works for Piano and Orchestra
DYEAR=1900
DGENRE=
TTITLE0=Piano Concerto No.2 in F Minor, OP 21, Maestoso
TTITLE1=Larghtto
TTITLE2=Allegro Vivace
TTITLE3=Krakowiak Concerto Rondo in F, Op.14, Introduction -Rondeau
TTITLE4=Andante Spianato and Grande Polonaise Brillante in E Flat, Op
TTITLE4=22
TTITLE5=Fantasy on Polish Airs in A, Op.13
EXTD=Claudio Arrau\nLondon Philharmonic Orchestra\nEliaho Inbal
EXTT0=
EXTT1=
EXTT2=
EXTT3=
EXTT4=
EXTT5=
PLAYORDER=
